<svg width="410" height="823" viewBox="0 0 410 823" fill="none" xmlns="http://www.w3.org/2000/svg">
<g opacity="0.7">
<g opacity="0.3">
<path opacity="0.3" d="M567.792 303.994L-66.6507 670.97L-304.53 808.636" stroke="#BABABA" stroke-width="8" stroke-miterlimit="10"/>
<path opacity="0.3" d="M-245.06 843.053L627.262 338.411" stroke="#BABABA" stroke-width="8" stroke-miterlimit="10"/>
<path opacity="0.3" d="M-185.542 877.497L686.732 372.828" stroke="#BABABA" stroke-width="8" stroke-miterlimit="10"/>
<path opacity="0.3" d="M-126.072 911.914L746.085 407.177" stroke="#BABABA" stroke-width="8" stroke-miterlimit="10"/>
<path opacity="0.3" d="M-66.6021 925.908L805.726 421.072" stroke="#BABABA" stroke-width="8" stroke-miterlimit="10"/>
<path opacity="0.3" d="M-364 794.642L508.322 290" stroke="#BABABA" stroke-width="8" stroke-miterlimit="10"/>
<path opacity="0.3" d="M-205.372 613.633L93.1826 785.886" stroke="#BABABA" stroke-width="8" stroke-miterlimit="10"/>
<path opacity="0.3" d="M-26.6802 510.427L528.048 831.581" stroke="#BABABA" stroke-width="8" stroke-miterlimit="10"/>
<path opacity="0.3" d="M-60.104 392.981L19.9253 439.255L296.977 599.448" stroke="#BABABA" stroke-width="8"/>
<path opacity="0.3" d="M529.009 601.659L290.189 464.56" stroke="#BABABA" stroke-width="8" stroke-miterlimit="10"/>
<path opacity="0.3" d="M-106.084 556.315L468.578 888.941" stroke="#BABABA" stroke-width="8" stroke-miterlimit="10"/>
</g>
<g opacity="0.5" filter="url(#filter0_d)">
<path d="M58.5 135L314.119 283.582C316.757 285.115 316.776 288.918 314.154 290.478L243.058 332.776C241.791 333.529 240.212 333.525 238.949 332.764L201.527 310.221C200.277 309.468 198.716 309.455 197.454 310.188L100.5 366.5L5.4404 421.559C2.78812 423.095 2.77821 426.922 5.4225 428.471L289.628 595.058C292.261 596.602 292.266 600.406 289.636 601.955L217.428 644.507C214.784 646.065 214.806 649.896 217.468 651.423L313.5 706.5" stroke="#FFEFE8" stroke-width="3"/>
</g>
<g opacity="0.3">
<path opacity="0.3" d="M575.792 -115.006L-58.6507 251.97L-296.53 389.637" stroke="#BABABA" stroke-width="8" stroke-miterlimit="10"/>
<path opacity="0.3" d="M-237.06 424.053L635.262 -80.5891" stroke="#BABABA" stroke-width="8" stroke-miterlimit="10"/>
<path opacity="0.3" d="M-177.542 458.497L694.732 -46.1724" stroke="#BABABA" stroke-width="8" stroke-miterlimit="10"/>
<path opacity="0.3" d="M-118.072 492.914L754.085 -11.8232" stroke="#BABABA" stroke-width="8" stroke-miterlimit="10"/>
<path opacity="0.3" d="M-58.6021 506.908L813.726 2.07202" stroke="#BABABA" stroke-width="8" stroke-miterlimit="10"/>
<path opacity="0.3" d="M-356 375.642L516.322 -129" stroke="#BABABA" stroke-width="8" stroke-miterlimit="10"/>
<path opacity="0.3" d="M-197.372 194.633L101.183 366.886" stroke="#BABABA" stroke-width="8" stroke-miterlimit="10"/>
<path opacity="0.3" d="M-18.6802 91.4265L536.048 412.581" stroke="#BABABA" stroke-width="8" stroke-miterlimit="10"/>
<path opacity="0.3" d="M-52.104 -26.0188L27.9253 20.2546L304.977 180.448" stroke="#BABABA" stroke-width="8"/>
<path opacity="0.3" d="M537.009 182.659L298.189 45.5603" stroke="#BABABA" stroke-width="8" stroke-miterlimit="10"/>
<path opacity="0.3" d="M-98.0837 137.315L476.578 469.941" stroke="#BABABA" stroke-width="8" stroke-miterlimit="10"/>
</g>
</g>
<defs>
<filter id="filter0_d" x="-2.05469" y="129.703" width="323.664" height="582.098" filterUnits="userSpaceOnUse" color-interpolation-filters="sRGB">
<feFlood flood-opacity="0" result="BackgroundImageFix"/>
<feColorMatrix in="SourceAlpha" type="matrix" values="0 0 0 0 0 0 0 0 0 0 0 0 0 0 0 0 0 0 127 0"/>
<feOffset/>
<feGaussianBlur stdDeviation="2"/>
<feColorMatrix type="matrix" values="0 0 0 0 1 0 0 0 0 0.635833 0 0 0 0 0.208333 0 0 0 0.53 0"/>
<feBlend mode="normal" in2="BackgroundImageFix" result="effect1_dropShadow"/>
<feBlend mode="normal" in="SourceGraphic" in2="effect1_dropShadow" result="shape"/>
</filter>
</defs>
</svg>
