<svg width="68" height="85" viewBox="0 0 68 85" fill="none" xmlns="http://www.w3.org/2000/svg">
<path d="M42.7095 33.0608C42.7095 37.8162 38.8068 41.6713 33.9926 41.6713C29.1783 41.6713 25.2756 37.8162 25.2756 33.0608C25.2756 28.3055 29.1783 24.4504 33.9926 24.4504C38.8068 24.4504 42.7095 28.3055 42.7095 33.0608Z" fill="url(#paint0_linear)"/>
<path fill-rule="evenodd" clip-rule="evenodd" d="M68 35.7815C68 46.3865 62.4007 56.6604 55.7467 65.1254C51.1734 58.0673 43.1663 53.3887 34.0531 53.3887C24.908 53.3887 16.8768 58.1 12.3116 65.1995C5.63201 56.7204 0 46.4174 0 35.7815C0 16.0199 15.2223 0 34 0C52.7777 0 68 16.0199 68 35.7815ZM47.8879 33.0608C47.8879 40.6412 41.6668 46.7864 33.9926 46.7864C26.3184 46.7864 20.0972 40.6412 20.0972 33.0608C20.0972 25.4805 26.3184 19.3353 33.9926 19.3353C41.6668 19.3353 47.8879 25.4805 47.8879 33.0608Z" fill="url(#paint1_linear)"/>
<path d="M34.0531 57.6025C41.962 57.6025 49.0955 62.049 52.7116 68.7903C46.5152 75.9111 40.0123 81.3798 36.541 84.1109C35.0344 85.2964 32.9656 85.2964 31.459 84.1109C28 81.3895 21.5308 75.9498 15.3542 68.8659C18.9574 62.0822 26.1146 57.6025 34.0531 57.6025Z" fill="url(#paint2_linear)"/>
<defs>
<linearGradient id="paint0_linear" x1="4.61668e-07" y1="-0.0508583" x2="66.7979" y2="85.8543" gradientUnits="userSpaceOnUse">
<stop stop-color="#FF4D6A"/>
<stop offset="1" stop-color="#FF4D6A"/>
</linearGradient>
<linearGradient id="paint1_linear" x1="4.61668e-07" y1="-0.0508583" x2="66.7979" y2="85.8543" gradientUnits="userSpaceOnUse">
<stop stop-color="#FF4D6A"/>
<stop offset="1" stop-color="#FF4D6A"/>
</linearGradient>
<linearGradient id="paint2_linear" x1="4.61668e-07" y1="-0.0508583" x2="66.7979" y2="85.8543" gradientUnits="userSpaceOnUse">
<stop stop-color="#FF4D6A"/>
<stop offset="1" stop-color="#FF4D6A"/>
</linearGradient>
</defs>
</svg>
